<svg width="36" height="36" viewBox="0 0 36 36" fill="none" xmlns="http://www.w3.org/2000/svg">
<path d="M9.90036 32.9218C12.3744 34.2545 15.1535 34.954 17.9848 34.954H17.9924C27.409 34.954 35.25 27.2863 35.25 17.8558C35.25 13.283 33.3067 8.99391 30.0846 5.76406C26.8577 2.52945 22.5591 0.75 17.9924 0.75C8.56505 0.75 0.894196 8.42086 0.894196 17.8482C0.894196 20.8242 1.66155 23.7329 3.1221 26.3063L0.758882 34.934L0.644422 35.3518L1.06348 35.2418L9.90036 32.9218ZM10.2866 29.3698L5.40786 30.6489L6.70545 25.898L6.73439 25.7921L6.67594 25.6991L6.34202 25.1679L6.34195 25.1677C4.96329 22.9768 4.24018 20.4503 4.24018 17.8482C4.24018 10.2681 10.4121 4.09598 18 4.09598C21.6752 4.09598 25.1253 5.52674 27.7194 8.12831C30.3194 10.7358 31.9115 14.1879 31.904 17.8553V17.8558C31.904 25.4401 25.5762 31.6156 17.9924 31.6156C15.5175 31.6156 13.0953 30.9522 10.9865 29.7005C10.9864 29.7004 10.9862 29.7003 10.9861 29.7002L10.4782 29.397L10.3881 29.3432L10.2866 29.3698ZM20.3233 21.7142L20.323 21.7146C20.2259 21.8268 20.1544 21.8603 20.0913 21.8681C20.0188 21.8772 19.9056 21.8587 19.7148 21.7616L19.7131 21.7608C18.4774 21.1429 17.4744 20.601 16.5782 19.8722C15.6856 19.1464 14.8905 18.2277 14.0875 16.8498C13.996 16.6923 14.0018 16.6268 14.0109 16.5923C14.0255 16.5367 14.073 16.4658 14.2086 16.3209C14.2369 16.2907 14.2673 16.2589 14.2997 16.2251C14.5643 15.9485 14.957 15.5379 15.3321 14.7877L15.3333 14.7853C15.5188 14.4039 15.4163 14.0723 15.2941 13.8279C15.2464 13.7324 15.0146 13.1749 14.7439 12.5174C14.6347 12.2522 14.5203 11.9734 14.4112 11.7076C14.2535 11.3233 14.107 10.9664 14.0037 10.7172L14.0035 10.7168C13.8216 10.2802 13.6159 10.0379 13.3731 9.92434C13.2537 9.8685 13.1412 9.85155 13.0475 9.84617C13.002 9.84356 12.9588 9.84363 12.9245 9.84368C12.8877 9.84375 12.8621 9.84376 12.839 9.84241C12.5885 9.82679 12.3016 9.82679 12.0247 9.82679H12.0196C11.6813 9.82679 11.1551 9.95384 10.7131 10.4305L10.7116 10.4321C10.6864 10.4597 10.6581 10.4901 10.627 10.5234C10.1794 11.0028 9.17411 12.0795 9.17411 14.1143C9.17411 15.2065 9.57067 16.2663 9.98189 17.0771C10.3735 17.8493 10.7887 18.4153 10.9186 18.5924C10.9257 18.6021 10.932 18.6106 10.9373 18.6179L10.9373 18.6179L10.9399 18.6214C10.9532 18.6389 10.9781 18.6746 11.0143 18.7265C11.5189 19.4497 14.2217 23.3235 18.2347 25.0598L18.2348 25.0599C19.5766 25.6393 20.526 25.9608 21.3156 26.11C22.1124 26.2607 22.7372 26.2342 23.4249 26.1326L23.4254 26.1325C23.8781 26.0648 24.5341 25.792 25.1163 25.4183C25.6924 25.0484 26.2592 24.5397 26.4625 23.9651C26.6442 23.4515 26.7359 22.9734 26.7681 22.5966C26.7841 22.4086 26.7856 22.2419 26.7748 22.1062C26.7654 21.9878 26.7442 21.8539 26.688 21.7563C26.6028 21.5973 26.4548 21.4952 26.3134 21.4156C26.2154 21.3603 26.0941 21.3023 25.9642 21.2403C25.9056 21.2122 25.8453 21.1834 25.7845 21.1536C25.5719 21.0454 24.9493 20.7379 24.3317 20.4405C23.7227 20.1472 23.0939 19.8515 22.8818 19.7762C22.6954 19.7068 22.4745 19.6297 22.2531 19.6557C22.0038 19.6849 21.8058 19.8337 21.6392 20.0858C21.3695 20.494 20.578 21.4209 20.3233 21.7142Z" fill="#E32F2F" stroke="#E32F2F" stroke-width="0.5"/>
</svg>
